<?xml version="1.0" encoding="UTF-8" standalone="no"?>
<!-- Created with Inkscape (http://www.inkscape.org/) -->

<svg
   xmlns:dc="http://purl.org/dc/elements/1.1/"
   xmlns:cc="http://creativecommons.org/ns#"
   xmlns:rdf="http://www.w3.org/1999/02/22-rdf-syntax-ns#"
   xmlns:svg="http://www.w3.org/2000/svg"
   xmlns="http://www.w3.org/2000/svg"
   xmlns:sodipodi="http://sodipodi.sourceforge.net/DTD/sodipodi-0.dtd"
   xmlns:inkscape="http://www.inkscape.org/namespaces/inkscape"
   width="137.46869mm"
   height="38.314579mm"
   viewBox="0 0 487.09378 135.76032"
   id="svg3370"
   version="1.1"
   inkscape:version="0.91 r13725"
   sodipodi:docname="Subscribe.svg">
  <title
     id="title3447">Subscribe Button</title>
  <defs
     id="defs3372" />
  <sodipodi:namedview
     id="base"
     pagecolor="#ffffff"
     bordercolor="#666666"
     borderopacity="1.0"
     inkscape:pageopacity="0.0"
     inkscape:pageshadow="2"
     inkscape:zoom="0.35"
     inkscape:cx="311.40404"
     inkscape:cy="34.488609"
     inkscape:document-units="px"
     inkscape:current-layer="layer1"
     showgrid="false"
     fit-margin-top="0"
     fit-margin-left="0"
     fit-margin-right="0"
     fit-margin-bottom="0"
     inkscape:window-width="482"
     inkscape:window-height="474"
     inkscape:window-x="946"
     inkscape:window-y="279"
     inkscape:window-maximized="0" />
  <metadata
     id="metadata3375">
    <rdf:RDF>
      <cc:Work
         rdf:about="">
        <dc:format>image/svg+xml</dc:format>
        <dc:type
           rdf:resource="http://purl.org/dc/dcmitype/StillImage" />
        <dc:title>Subscribe Button</dc:title>
        <dc:creator>
          <cc:Agent>
            <dc:title>Tavin's Origami</dc:title>
          </cc:Agent>
        </dc:creator>
        <dc:source>tavinsorigami.com</dc:source>
        <dc:subject>
          <rdf:Bag>
            <rdf:li>youtube</rdf:li>
            <rdf:li>video</rdf:li>
            <rdf:li>subscribe</rdf:li>
            <rdf:li>button</rdf:li>
            <rdf:li>icon</rdf:li>
          </rdf:Bag>
        </dc:subject>
        <dc:description>A Video Subscribe button</dc:description>
        <cc:license
           rdf:resource="http://creativecommons.org/publicdomain/zero/1.0/" />
      </cc:Work>
      <cc:License
         rdf:about="http://creativecommons.org/publicdomain/zero/1.0/">
        <cc:permits
           rdf:resource="http://creativecommons.org/ns#Reproduction" />
        <cc:permits
           rdf:resource="http://creativecommons.org/ns#Distribution" />
        <cc:permits
           rdf:resource="http://creativecommons.org/ns#DerivativeWorks" />
      </cc:License>
    </rdf:RDF>
  </metadata>
  <g
     inkscape:label="Layer 1"
     inkscape:groupmode="layer"
     id="layer1"
     transform="translate(-13.595964,-30.196333)">
    <g
       transform="translate(-100.88457,-207.91191)"
       id="g3378">
      <rect
         ry="9.8090038"
         rx="11.361903"
         y="238.52032"
         x="114.89262"
         height="134.93616"
         width="486.26962"
         id="rect4167"
         style="opacity:1;fill:#e62117;fill-opacity:1;stroke:#e62117;stroke-width:0.82416439;stroke-linejoin:round;stroke-miterlimit:4;stroke-dasharray:none;stroke-opacity:1" />
      <rect
         rx="6.2726417"
         ry="4.4743104"
         y="276.12097"
         x="149.62444"
         height="59.734879"
         width="80.094627"
         id="rect4159"
         style="opacity:1;fill:#ffffff;fill-opacity:1;stroke-width:0.5;stroke-miterlimit:4;stroke-dasharray:none" />
      <path
         sodipodi:nodetypes="cccc"
         inkscape:connector-curvature="0"
         id="path4163"
         d="m 182.17177,290.9884 0,30 15,-15 z"
         style="fill:#e62117;fill-opacity:1;fill-rule:evenodd;stroke:#e62117;stroke-width:6.30000019;stroke-linecap:butt;stroke-linejoin:round;stroke-miterlimit:4;stroke-dasharray:none;stroke-opacity:1" />
      <g
         transform="translate(0,-0.16242168)"
         id="text4136"
         style="font-style:normal;font-variant:normal;font-weight:normal;font-stretch:normal;font-size:65.81316376px;line-height:125%;font-family:Arial;-inkscape-font-specification:Arial;letter-spacing:0px;word-spacing:0px;fill:#ffffff;fill-opacity:1;stroke:none;stroke-width:1px;stroke-linecap:butt;stroke-linejoin:miter;stroke-opacity:1">
        <path
           inkscape:connector-curvature="0"
           id="path4204"
           style="fill:#ffffff"
           d="m 262.91244,314.57028 5.88077,-0.51416 q 0.41776,3.53488 1.92812,5.81649 1.5425,2.24948 4.75603,3.66343 3.21353,1.38182 7.23045,1.38182 3.56702,0 6.29853,-1.06047 2.7315,-1.06046 4.04905,-2.89218 1.34968,-1.86385 1.34968,-4.04905 0,-2.21734 -1.28541,-3.85624 -1.28542,-1.67104 -4.24187,-2.79577 -1.89598,-0.73912 -8.38732,-2.28161 -6.49134,-1.57463 -9.0943,-2.95645 -3.37421,-1.76745 -5.04524,-4.37041 -1.63891,-2.6351 -1.63891,-5.88076 0,-3.56703 2.02453,-6.65202 2.02453,-3.11713 5.9129,-4.72389 3.88838,-1.60677 8.64441,-1.60677 5.23805,0 9.22284,1.70317 4.01691,1.67104 6.16998,4.94885 2.15307,3.2778 2.31374,7.42326 l -5.97717,0.44989 q -0.48203,-4.46681 -3.2778,-6.74842 -2.76364,-2.28161 -8.19451,-2.28161 -5.65582,0 -8.25878,2.0888 -2.57083,2.05666 -2.57083,4.98098 0,2.53869 1.83171,4.17759 1.79958,1.6389 9.38352,3.37421 7.61608,1.70317 10.44399,2.98859 4.11332,1.89598 6.07357,4.8203 1.96026,2.89218 1.96026,6.68415 0,3.75983 -2.15307,7.1019 -2.15307,3.30994 -6.20212,5.17379 -4.01691,1.83172 -9.06216,1.83172 -6.39493,0 -10.7332,-1.86385 -4.30614,-1.86385 -6.78056,-5.59155 -2.44228,-3.75983 -2.57083,-8.48373 z" />
        <path
           inkscape:connector-curvature="0"
           id="path4206"
           style="fill:#ffffff"
           d="m 330.62159,329.70602 0,-5.01311 q -3.98478,5.78436 -10.82961,5.78436 -3.02072,0 -5.65581,-1.15687 -2.60297,-1.15687 -3.88838,-2.89218 -1.25328,-1.76744 -1.76744,-4.30613 -0.35349,-1.70318 -0.35349,-5.39874 l 0,-21.14505 5.78436,0 0,18.92771 q 0,4.53108 0.35349,6.10571 0.5463,2.28161 2.31374,3.59916 1.76744,1.28542 4.37041,1.28542 2.60296,0 4.88457,-1.31755 2.28161,-1.34969 3.21353,-3.6313 0.96406,-2.31374 0.96406,-6.68415 l 0,-18.285 5.78436,0 0,34.12772 -5.17379,0 z" />
        <path
           inkscape:connector-curvature="0"
           id="path4208"
           style="fill:#ffffff"
           d="m 350.22414,329.70602 -5.3666,0 0,-47.1104 5.78436,0 0,16.80678 q 3.66343,-4.59535 9.35138,-4.59535 3.14927,0 5.94504,1.28541 2.82791,1.25328 4.62749,3.56703 1.83171,2.28161 2.86004,5.52727 1.02833,3.24567 1.02833,6.94124 0,8.77294 -4.33827,13.56111 -4.33827,4.78816 -10.41184,4.78816 -6.04145,0 -9.47993,-5.04525 l 0,4.274 z m -0.0643,-17.32094 q 0,6.13785 1.67104,8.86935 2.7315,4.46681 7.39113,4.46681 3.79197,0 6.5556,-3.2778 2.76364,-3.30994 2.76364,-9.83341 0,-6.68415 -2.66723,-9.86555 -2.6351,-3.1814 -6.39493,-3.1814 -3.79197,0 -6.55561,3.30994 -2.76364,3.2778 -2.76364,9.51206 z" />
        <path
           inkscape:connector-curvature="0"
           id="path4210"
           style="fill:#ffffff"
           d="m 379.21022,319.51912 5.72009,-0.89979 q 0.48203,3.43848 2.66723,5.2702 2.21734,1.83171 6.16998,1.83171 3.98479,0 5.91291,-1.60676 1.92812,-1.63891 1.92812,-3.82411 0,-1.96025 -1.70318,-3.08499 -1.189,-0.77125 -5.9129,-1.96026 -6.36279,-1.60676 -8.83722,-2.76363 -2.44228,-1.18901 -3.72769,-3.24567 -1.25328,-2.0888 -1.25328,-4.59536 0,-2.2816 1.02833,-4.20972 1.06046,-1.96026 2.86004,-3.24567 1.34969,-0.9962 3.66343,-1.67104 2.34588,-0.70698 5.01311,-0.70698 4.01692,0 7.03764,1.15687 3.05286,1.15688 4.49895,3.14927 1.44609,1.96025 1.99239,5.27019 l -5.65582,0.77125 q -0.38562,-2.6351 -2.24947,-4.11332 -1.83172,-1.47823 -5.20593,-1.47823 -3.98478,0 -5.68795,1.31755 -1.70317,1.31755 -1.70317,3.08499 0,1.12474 0.70697,2.02453 0.70698,0.93192 2.21734,1.54249 0.86766,0.32136 5.10952,1.47823 6.13785,1.6389 8.548,2.69937 2.44228,1.02833 3.8241,3.02072 1.38182,1.99239 1.38182,4.94884 0,2.89218 -1.70317,5.46301 -1.67104,2.53869 -4.85244,3.95264 -3.18139,1.38182 -7.19831,1.38182 -6.65201,0 -10.15477,-2.76364 -3.47061,-2.76364 -4.43467,-8.19451 z" />
        <path
           inkscape:connector-curvature="0"
           id="path4212"
           style="fill:#ffffff"
           d="m 436.70033,317.20538 5.68795,0.73911 q -0.93192,5.88077 -4.78816,9.22284 -3.82411,3.30994 -9.41566,3.30994 -7.0055,0 -11.2795,-4.56322 -4.24186,-4.59535 -4.24186,-13.14335 0,-5.52727 1.83171,-9.67273 1.83171,-4.14546 5.55941,-6.20212 3.75984,-2.0888 8.16238,-2.0888 5.55941,0 9.0943,2.82791 3.53488,2.79578 4.53108,7.96956 l -5.62368,0.86766 q -0.80339,-3.43848 -2.86005,-5.17379 -2.02452,-1.73531 -4.9167,-1.73531 -4.37041,0 -7.10191,3.14926 -2.73151,3.11713 -2.73151,9.89769 0,6.87696 2.6351,9.99409 2.6351,3.11712 6.87696,3.11712 3.40635,0 5.68796,-2.08879 2.2816,-2.0888 2.89218,-6.42707 z" />
        <path
           inkscape:connector-curvature="0"
           id="path4214"
           style="fill:#ffffff"
           d="m 447.27285,329.70602 0,-34.12772 5.20593,0 0,5.17379 q 1.99239,-3.63129 3.66343,-4.78817 1.70317,-1.15687 3.7277,-1.15687 2.92431,0 5.94503,1.86385 l -1.99239,5.3666 q -2.12093,-1.25328 -4.24186,-1.25328 -1.89599,0 -3.40635,1.15688 -1.51036,1.12473 -2.15306,3.14926 -0.96406,3.08499 -0.96406,6.74842 l 0,17.86724 -5.78437,0 z" />
        <path
           inkscape:connector-curvature="0"
           id="path4216"
           style="fill:#ffffff"
           d="m 469.34984,289.24764 0,-6.65202 5.78436,0 0,6.65202 -5.78436,0 z m 0,40.45838 0,-34.12772 5.78436,0 0,34.12772 -5.78436,0 z" />
        <path
           inkscape:connector-curvature="0"
           id="path4218"
           style="fill:#ffffff"
           d="m 489.30587,329.70602 -5.3666,0 0,-47.1104 5.78436,0 0,16.80678 q 3.66343,-4.59535 9.35138,-4.59535 3.14926,0 5.94504,1.28541 2.82791,1.25328 4.62748,3.56703 1.83172,2.28161 2.86005,5.52727 1.02833,3.24567 1.02833,6.94124 0,8.77294 -4.33827,13.56111 -4.33827,4.78816 -10.41185,4.78816 -6.04144,0 -9.47992,-5.04525 l 0,4.274 z m -0.0643,-17.32094 q 0,6.13785 1.67104,8.86935 2.7315,4.46681 7.39112,4.46681 3.79197,0 6.55561,-3.2778 2.76364,-3.30994 2.76364,-9.83341 0,-6.68415 -2.66723,-9.86555 -2.6351,-3.1814 -6.39494,-3.1814 -3.79196,0 -6.5556,3.30994 -2.76364,3.2778 -2.76364,9.51206 z" />
        <path
           inkscape:connector-curvature="0"
           id="path4220"
           style="fill:#ffffff"
           d="m 543.96808,318.71574 5.97718,0.73911 q -1.41396,5.23806 -5.23806,8.13024 -3.82411,2.89218 -9.76915,2.89218 -7.48753,0 -11.89007,-4.59535 -4.3704,-4.62749 -4.3704,-12.95054 0,-8.61227 4.43467,-13.3683 4.43468,-4.75603 11.50445,-4.75603 6.84483,0 11.1831,4.65963 4.33827,4.65962 4.33827,13.11121 0,0.51417 -0.0321,1.5425 l -25.45118,0 q 0.32135,5.62368 3.1814,8.61227 2.86004,2.98858 7.13404,2.98858 3.1814,0 5.43087,-1.67103 2.24947,-1.67104 3.56702,-5.33447 z m -18.99198,-9.35138 19.05625,0 q -0.38562,-4.30614 -2.1852,-6.4592 -2.76364,-3.34208 -7.16618,-3.34208 -3.98478,0 -6.71628,2.66723 -2.69937,2.66724 -2.98859,7.13405 z" />
      </g>
    </g>
  </g>
</svg>
