<?xml version="1.0" encoding="UTF-8" standalone="no"?>
<svg
   xmlns:dc="http://purl.org/dc/elements/1.1/"
   xmlns:cc="http://creativecommons.org/ns#"
   xmlns:rdf="http://www.w3.org/1999/02/22-rdf-syntax-ns#"
   xmlns:svg="http://www.w3.org/2000/svg"
   xmlns="http://www.w3.org/2000/svg"
   xmlns:sodipodi="http://sodipodi.sourceforge.net/DTD/sodipodi-0.dtd"
   xmlns:inkscape="http://www.inkscape.org/namespaces/inkscape"
   version="1.1"
   id="R"
   x="0px"
   y="0px"
   width="1000"
   height="994.12354"
   viewBox="0 0 1000 994.12354"
   xml:space="preserve"
   sodipodi:docname="ROBLOX_Studio Logo_2015.svg"
   inkscape:version="1.0.2 (e86c870879, 2021-01-15)"><metadata
   id="metadata18"><rdf:RDF><cc:Work
       rdf:about=""><dc:format>image/svg+xml</dc:format><dc:type
         rdf:resource="http://purl.org/dc/dcmitype/StillImage" /><dc:title></dc:title></cc:Work></rdf:RDF></metadata><defs
   id="defs16">
	
	

		
	
		
	</defs><sodipodi:namedview
   pagecolor="#ffffff"
   bordercolor="#666666"
   borderopacity="1"
   objecttolerance="10"
   gridtolerance="10"
   guidetolerance="10"
   inkscape:pageopacity="0"
   inkscape:pageshadow="2"
   inkscape:window-width="1366"
   inkscape:window-height="705"
   id="namedview14"
   showgrid="false"
   inkscape:zoom="0.5"
   inkscape:cx="480.62222"
   inkscape:cy="350.02969"
   inkscape:window-x="-8"
   inkscape:window-y="-8"
   inkscape:window-maximized="1"
   inkscape:current-layer="R"
   showguides="false" />
<style
   type="text/css"
   id="style2">
	.st0{fill:#E2231A;}
	.st1{fill:#FFFFFF;}
</style>

<g
   id="g1062"><g
     id="g1049"><g
       id="g1043"><path
         id="path1038"
         style="color:#000000;font-style:normal;font-variant:normal;font-weight:normal;font-stretch:normal;font-size:medium;line-height:normal;font-family:sans-serif;font-variant-ligatures:normal;font-variant-position:normal;font-variant-caps:normal;font-variant-numeric:normal;font-variant-alternates:normal;font-variant-east-asian:normal;font-feature-settings:normal;font-variation-settings:normal;text-indent:0;text-align:start;text-decoration:none;text-decoration-line:none;text-decoration-style:solid;text-decoration-color:#000000;letter-spacing:normal;word-spacing:normal;text-transform:none;writing-mode:lr-tb;direction:ltr;text-orientation:mixed;dominant-baseline:auto;baseline-shift:baseline;text-anchor:start;white-space:normal;shape-padding:0;shape-margin:0;inline-size:0;clip-rule:nonzero;display:inline;overflow:visible;visibility:visible;isolation:auto;mix-blend-mode:normal;color-interpolation:sRGB;color-interpolation-filters:linearRGB;solid-color:#000000;solid-opacity:1;vector-effect:none;fill:#006dae;fill-opacity:1;fill-rule:evenodd;stroke:none;stroke-linecap:butt;stroke-linejoin:miter;stroke-miterlimit:4;stroke-dasharray:none;stroke-dashoffset:0;stroke-opacity:1;paint-order:stroke fill markers;color-rendering:auto;image-rendering:auto;shape-rendering:auto;text-rendering:auto;enable-background:accumulate;stop-color:#000000"
         d="M 48.207031,0 C 36.373849,0 26.650391,9.7234579 26.650391,21.556641 V 951.79297 c 0,11.83318 9.723458,21.55664 21.55664,21.55664 H 978.44336 c 11.83318,0 21.55664,-9.72346 21.55664,-21.55664 V 21.556641 C 1000,9.7234579 990.27654,0 978.44336,0 Z" /><path
         style="color:#000000;font-style:normal;font-variant:normal;font-weight:normal;font-stretch:normal;font-size:medium;line-height:normal;font-family:sans-serif;font-variant-ligatures:normal;font-variant-position:normal;font-variant-caps:normal;font-variant-numeric:normal;font-variant-alternates:normal;font-variant-east-asian:normal;font-feature-settings:normal;font-variation-settings:normal;text-indent:0;text-align:start;text-decoration:none;text-decoration-line:none;text-decoration-style:solid;text-decoration-color:#000000;letter-spacing:normal;word-spacing:normal;text-transform:none;writing-mode:lr-tb;direction:ltr;text-orientation:mixed;dominant-baseline:auto;baseline-shift:baseline;text-anchor:start;white-space:normal;shape-padding:0;shape-margin:0;inline-size:0;clip-rule:nonzero;display:inline;overflow:visible;visibility:visible;isolation:auto;mix-blend-mode:normal;color-interpolation:sRGB;color-interpolation-filters:linearRGB;solid-color:#000000;solid-opacity:1;vector-effect:none;fill:#00a2ff;fill-opacity:1;fill-rule:evenodd;stroke:none;stroke-width:12.6171;stroke-linecap:butt;stroke-linejoin:miter;stroke-miterlimit:4;stroke-dasharray:none;stroke-dashoffset:0;stroke-opacity:1;paint-order:stroke fill markers;color-rendering:auto;image-rendering:auto;shape-rendering:auto;text-rendering:auto;enable-background:accumulate;stop-color:#000000"
         d="M 48.206301,6.3085723 H 978.44343 c 8.44736,0 15.24795,6.8005877 15.24795,15.2479537 V 951.79365 c 0,8.44737 -6.80059,15.24795 -15.24795,15.24795 H 48.206301 c -8.447366,0 -15.247954,-6.80058 -15.247954,-15.24795 V 21.556526 c 0,-8.447366 6.800588,-15.2479537 15.247954,-15.2479537 z"
         id="path1032" /></g><path
       id="rect879"
       style="color:#000000;font-style:normal;font-variant:normal;font-weight:normal;font-stretch:normal;font-size:medium;line-height:normal;font-family:sans-serif;font-variant-ligatures:normal;font-variant-position:normal;font-variant-caps:normal;font-variant-numeric:normal;font-variant-alternates:normal;font-variant-east-asian:normal;font-feature-settings:normal;font-variation-settings:normal;text-indent:0;text-align:start;text-decoration:none;text-decoration-line:none;text-decoration-style:solid;text-decoration-color:#000000;letter-spacing:normal;word-spacing:normal;text-transform:none;writing-mode:lr-tb;direction:ltr;text-orientation:mixed;dominant-baseline:auto;baseline-shift:baseline;text-anchor:start;white-space:normal;shape-padding:0;shape-margin:0;inline-size:0;clip-rule:nonzero;display:inline;overflow:visible;visibility:visible;isolation:auto;mix-blend-mode:normal;color-interpolation:sRGB;color-interpolation-filters:linearRGB;solid-color:#000000;solid-opacity:1;vector-effect:none;fill:#ffffff;fill-opacity:1;fill-rule:evenodd;stroke:none;stroke-width:1.03751;stroke-linecap:butt;stroke-linejoin:miter;stroke-miterlimit:4;stroke-dasharray:none;stroke-dashoffset:0;stroke-opacity:1;paint-order:stroke fill markers;color-rendering:auto;image-rendering:auto;shape-rendering:auto;text-rendering:auto;enable-background:accumulate;stop-color:#000000"
       d="M 953.06484,40.641599 V 45.96491 H 73.141959 v -2.107439 h -6.780282 v 2.107439 h -2.729539 v 6.780281 h 2.727513 V 923.71754 h -12.4805 v 6.78027 h 12.4805 l 0.0021,12.48253 h 6.780281 V 930.49781 H 953.06484 v 18.70758 h 6.78028 v -18.70758 h 12.48252 v -6.78027 H 959.84512 V 52.745191 h 12.48252 V 45.96491 H 959.84512 V 40.641599 Z M 73.141959,52.745191 H 953.06484 V 923.71754 H 73.141959 Z"
       sodipodi:nodetypes="cccccccccccccccccccccccccccccccccc" /></g><g
     id="g1024"><path
       id="path1015"
       style="color:#000000;font-style:normal;font-variant:normal;font-weight:normal;font-stretch:normal;font-size:medium;line-height:normal;font-family:sans-serif;font-variant-ligatures:normal;font-variant-position:normal;font-variant-caps:normal;font-variant-numeric:normal;font-variant-alternates:normal;font-variant-east-asian:normal;font-feature-settings:normal;font-variation-settings:normal;text-indent:0;text-align:start;text-decoration:none;text-decoration-line:none;text-decoration-style:solid;text-decoration-color:#000000;letter-spacing:normal;word-spacing:normal;text-transform:none;writing-mode:lr-tb;direction:ltr;text-orientation:mixed;dominant-baseline:auto;baseline-shift:baseline;text-anchor:start;white-space:normal;shape-padding:0;shape-margin:0;inline-size:0;clip-rule:nonzero;display:inline;overflow:visible;visibility:visible;isolation:auto;mix-blend-mode:normal;color-interpolation:sRGB;color-interpolation-filters:linearRGB;solid-color:#000000;solid-opacity:1;vector-effect:none;fill:#303030;fill-opacity:1;fill-rule:evenodd;stroke:none;stroke-linecap:butt;stroke-linejoin:round;stroke-miterlimit:4;stroke-dasharray:none;stroke-dashoffset:0;stroke-opacity:1;paint-order:stroke fill markers;color-rendering:auto;image-rendering:auto;shape-rendering:auto;text-rendering:auto;enable-background:accumulate;stop-color:#000000"
       d="M 8.46875,432.12109 A 8.4585961,8.4585961 0 0 0 0,440.57812 v 545.0879 a 8.4585961,8.4585961 0 0 0 8.4570312,8.45703 H 417.82227 a 8.4585961,8.4585961 0 0 0 6.76171,-13.53711 L 15.220703,435.49805 A 8.4585961,8.4585961 0 0 0 8.46875,432.12109 Z M 86.876953,671.94727 264.39062,908.3125 H 86.876953 Z" /><path
       style="color:#000000;font-style:normal;font-variant:normal;font-weight:normal;font-stretch:normal;font-size:medium;line-height:normal;font-family:sans-serif;font-variant-ligatures:normal;font-variant-position:normal;font-variant-caps:normal;font-variant-numeric:normal;font-variant-alternates:normal;font-variant-east-asian:normal;font-feature-settings:normal;font-variation-settings:normal;text-indent:0;text-align:start;text-decoration:none;text-decoration-line:none;text-decoration-style:solid;text-decoration-color:#000000;letter-spacing:normal;word-spacing:normal;text-transform:none;writing-mode:lr-tb;direction:ltr;text-orientation:mixed;dominant-baseline:auto;baseline-shift:baseline;text-anchor:start;white-space:normal;shape-padding:0;shape-margin:0;inline-size:0;clip-rule:nonzero;display:inline;overflow:visible;visibility:visible;isolation:auto;mix-blend-mode:normal;color-interpolation:sRGB;color-interpolation-filters:linearRGB;solid-color:#000000;solid-opacity:1;vector-effect:none;fill:#5e5e5e;fill-opacity:1;fill-rule:evenodd;stroke:none;stroke-width:16.9155;stroke-linecap:butt;stroke-linejoin:round;stroke-miterlimit:4;stroke-dasharray:none;stroke-dashoffset:0;stroke-opacity:1;paint-order:stroke fill markers;color-rendering:auto;image-rendering:auto;shape-rendering:auto;text-rendering:auto;enable-background:accumulate;stop-color:#000000"
       d="M 8.4577503,440.5772 V 985.66576 H 417.8218 Z M 78.418664,646.59982 281.32051,916.77105 H 78.418664 Z"
       id="path1007" /></g><g
     id="g851"
     transform="matrix(0.85249967,0,0,0.85249967,105.77028,60.072751)"
     style="display:inline"><path
       class="st0"
       d="M 955.12996,945.15099 C 808.29655,809.72211 681.42107,699.95345 547.41777,587.33365 c 79.83175,-2.85114 166.79135,-7.12784 246.6231,-14.25568 8.55341,-1.42556 17.10681,-4.2767 24.23465,-9.97897 29.9369,-24.23464 72.70392,-67.00165 99.78969,-104.06639 4.2767,-7.12784 7.12784,-14.25567 4.2767,-22.80908 C 893.83057,307.92249 845.36129,153.96125 775.5085,17.106805 769.80623,7.1278355 758.4017,0 746.99716,0 488.96952,15.681238 242.34641,51.320416 24.234641,95.512996 9.97897,98.36413 3e-7,111.19423 3e-7,125.4499 4.2767016,390.60539 18.532373,664.31427 38.490312,933.74645 c 1.425567,14.25567 11.404537,25.66021 25.660208,28.51134 86.95959,12.83011 172.49362,24.23464 289.39012,31.36248 9.97897,0 18.53237,-9.97897 14.25567,-19.95794 -39.91588,-112.6198 -102.64083,-336.43384 -112.6198,-376.34972 9.97897,0 14.25567,-1.42556 22.80907,-1.42556 52.74599,106.91753 132.57775,255.17651 189.60043,377.77528 7.12783,15.68124 22.80907,25.66021 39.91588,25.66021 135.42887,2.85116 283.68785,-2.85114 439.07466,-25.66021 12.83011,-4.2767 18.53238,-19.95794 8.55341,-28.51134 z M 453.33034,367.79631 c -51.32042,5.70227 -129.72661,11.40454 -179.62146,14.25567 -4.2767,-31.36247 -8.5534,-76.98062 -9.97897,-109.76866 61.29939,1.42556 124.02434,2.85113 189.60043,8.5534 0,28.51134 0,57.02268 0,86.95959 z"
       id="path4"
       style="stroke-width:14.2557" /><path
       class="st1"
       d="m 788.33861,520.33199 c 25.6602,-22.80907 55.59711,-51.32041 75.55505,-84.10846 C 836.80789,316.4759 794.04087,185.32372 735.59262,62.724952 511.77859,78.406191 269.43218,109.76867 58.448251,149.68455 c 8.553403,282.26228 21.383507,513.20415 42.767009,755.55056 67.00166,9.97897 112.61981,15.68124 188.17486,21.3835 -37.06474,-131.15217 -65.57609,-238.0697 -92.66186,-370.64744 35.63918,-1.42557 72.70392,-2.85114 109.76867,-4.2767 88.38516,142.55671 139.70557,245.19754 225.2396,384.90311 105.49196,0 202.43053,-2.85113 300.79466,-11.40453 C 691.40004,786.91304 560.24787,664.31427 426.24456,545.9922 554.5456,538.86436 684.27221,530.31096 788.33861,520.33199 Z M 222.38847,436.22353 c -9.97897,-71.27835 -12.83011,-142.55671 -15.68124,-213.83506 99.7897,0 205.28166,4.2767 303.64579,12.8301 2.85114,48.46928 2.85114,128.30104 0,178.19589 -92.66186,9.97897 -189.60042,17.1068 -287.96455,22.80907 z"
       id="path8"
       style="stroke-width:14.2557" /></g></g></svg>
